<?xml version="1.0" standalone="no"?>
<!DOCTYPE svg PUBLIC "-//W3C//DTD SVG 20010904//EN"
 "http://www.w3.org/TR/2001/REC-SVG-20010904/DTD/svg10.dtd">
<svg version="1.0" xmlns="http://www.w3.org/2000/svg"
 width="918.000000pt" height="981.000000pt" viewBox="0 0 918.000000 981.000000"
 preserveAspectRatio="xMidYMid meet">

<g transform="translate(0.000000,981.000000) scale(0.100000,-0.100000)"
fill="#000000" stroke="none">
<path d="M425 9800 c-160 -34 -293 -138 -366 -285 -76 -155 -74 -315 8 -473
36 -69 151 -186 2068 -2104 l2030 -2030 -2021 -2017 c-1299 -1295 -2035 -2036
-2057 -2071 -58 -90 -81 -169 -81 -285 -1 -78 4 -114 22 -166 89 -261 356
-407 620 -341 46 12 109 36 140 53 82 45 4495 4459 4535 4535 42 81 58 157 59
285 1 133 -11 197 -55 289 -28 61 -169 203 -2249 2286 -1581 1582 -2235 2230
-2275 2254 -30 19 -81 43 -112 53 -63 22 -204 31 -266 17z"/>
<path d="M4203 9796 c-181 -42 -340 -196 -388 -377 -19 -69 -19 -199 0 -268
37 -140 -85 -12 2104 -2204 l2036 -2037 -2031 -2033 c-1294 -1294 -2041 -2048
-2058 -2077 -121 -214 -84 -476 92 -642 136 -128 303 -174 481 -133 151 36
-10 -117 2414 2304 2021 2020 2230 2232 2263 2293 85 162 86 410 3 571 -29 55
-298 328 -2252 2283 -1500 1501 -2236 2231 -2271 2252 -116 71 -266 96 -393
68z"/>
</g>
</svg>
